<svg width="29" height="35" viewBox="0 0 29 35" fill="none" xmlns="http://www.w3.org/2000/svg">
<mask id="path-1-outside-1_5_56" maskUnits="userSpaceOnUse" x="-0.643982" y="6" width="25" height="24" fill="black">
<rect fill="white" x="-0.643982" y="6" width="25" height="24"/>
<path d="M11.864 28.392C10.296 28.392 8.84935 28.1307 7.52402 27.608C6.21735 27.0853 5.06935 26.3573 4.08002 25.424C3.10935 24.4907 2.35335 23.3893 1.81202 22.12C1.27068 20.8507 1.00002 19.4787 1.00002 18.004C1.00002 16.5107 1.26135 15.1387 1.78402 13.888C2.32535 12.6373 3.08135 11.5453 4.05202 10.612C5.02269 9.67867 6.16135 8.96 7.46802 8.456C8.79335 7.93333 10.24 7.672 11.808 7.672C13.376 7.672 14.8134 7.93333 16.12 8.456C17.4454 8.96 18.5934 9.67867 19.564 10.612C20.5347 11.5453 21.2814 12.6467 21.804 13.916C22.3454 15.1667 22.616 16.5387 22.616 18.032C22.616 19.5067 22.3454 20.8787 21.804 22.148C21.2814 23.3987 20.5347 24.5 19.564 25.452C18.5934 26.3853 17.4547 27.1133 16.148 27.636C14.8414 28.14 13.4134 28.392 11.864 28.392ZM11.808 23.464C12.8534 23.464 13.7587 23.24 14.524 22.792C15.2894 22.344 15.8774 21.7093 16.288 20.888C16.6987 20.0667 16.904 19.1053 16.904 18.004C16.904 17.1827 16.7827 16.4453 16.54 15.792C16.316 15.12 15.98 14.5507 15.532 14.084C15.084 13.5987 14.5427 13.2347 13.908 12.992C13.292 12.7307 12.592 12.6 11.808 12.6C10.7627 12.6 9.85735 12.824 9.09202 13.272C8.32669 13.7013 7.73869 14.3267 7.32802 15.148C6.91735 15.9507 6.71202 16.9027 6.71202 18.004C6.71202 18.844 6.82402 19.6 7.04802 20.272C7.29068 20.944 7.63602 21.5227 8.08402 22.008C8.53202 22.4747 9.06402 22.8387 9.68002 23.1C10.3147 23.3427 11.024 23.464 11.808 23.464Z"/>
</mask>
<path d="M11.864 28.392C10.296 28.392 8.84935 28.1307 7.52402 27.608C6.21735 27.0853 5.06935 26.3573 4.08002 25.424C3.10935 24.4907 2.35335 23.3893 1.81202 22.12C1.27068 20.8507 1.00002 19.4787 1.00002 18.004C1.00002 16.5107 1.26135 15.1387 1.78402 13.888C2.32535 12.6373 3.08135 11.5453 4.05202 10.612C5.02269 9.67867 6.16135 8.96 7.46802 8.456C8.79335 7.93333 10.24 7.672 11.808 7.672C13.376 7.672 14.8134 7.93333 16.12 8.456C17.4454 8.96 18.5934 9.67867 19.564 10.612C20.5347 11.5453 21.2814 12.6467 21.804 13.916C22.3454 15.1667 22.616 16.5387 22.616 18.032C22.616 19.5067 22.3454 20.8787 21.804 22.148C21.2814 23.3987 20.5347 24.5 19.564 25.452C18.5934 26.3853 17.4547 27.1133 16.148 27.636C14.8414 28.14 13.4134 28.392 11.864 28.392ZM11.808 23.464C12.8534 23.464 13.7587 23.24 14.524 22.792C15.2894 22.344 15.8774 21.7093 16.288 20.888C16.6987 20.0667 16.904 19.1053 16.904 18.004C16.904 17.1827 16.7827 16.4453 16.54 15.792C16.316 15.12 15.98 14.5507 15.532 14.084C15.084 13.5987 14.5427 13.2347 13.908 12.992C13.292 12.7307 12.592 12.6 11.808 12.6C10.7627 12.6 9.85735 12.824 9.09202 13.272C8.32669 13.7013 7.73869 14.3267 7.32802 15.148C6.91735 15.9507 6.71202 16.9027 6.71202 18.004C6.71202 18.844 6.82402 19.6 7.04802 20.272C7.29068 20.944 7.63602 21.5227 8.08402 22.008C8.53202 22.4747 9.06402 22.8387 9.68002 23.1C10.3147 23.3427 11.024 23.464 11.808 23.464Z" fill="#16FFC1"/>
<path d="M7.52402 27.608L7.15262 28.5365L7.15715 28.5383L7.52402 27.608ZM4.08002 25.424L3.38688 26.1449L3.3938 26.1514L4.08002 25.424ZM1.81202 22.12L0.892175 22.5123H0.892175L1.81202 22.12ZM1.78402 13.888L0.866223 13.4907L0.861349 13.5024L1.78402 13.888ZM4.05202 10.612L3.35891 9.89116H3.35891L4.05202 10.612ZM7.46802 8.456L7.8279 9.38903L7.83489 9.38627L7.46802 8.456ZM16.12 8.456L15.7486 9.38448L15.7566 9.38765L15.7646 9.3907L16.12 8.456ZM19.564 10.612L20.2571 9.89116V9.89116L19.564 10.612ZM21.804 13.916L20.8793 14.2967L20.8827 14.305L20.8863 14.3132L21.804 13.916ZM21.804 22.148L20.8842 21.7557L20.8813 21.7624L21.804 22.148ZM19.564 25.452L20.2572 26.1729L20.2642 26.1659L19.564 25.452ZM16.148 27.636L16.5079 28.5691L16.5194 28.5645L16.148 27.636ZM14.524 22.792L14.0188 21.929L14.524 22.792ZM16.288 20.888L15.3936 20.4408V20.4408L16.288 20.888ZM16.54 15.792L15.5913 16.1082L15.5967 16.1243L15.6026 16.1402L16.54 15.792ZM15.532 14.084L14.7972 14.7623L14.8039 14.7695L14.8106 14.7765L15.532 14.084ZM13.908 12.992L13.5175 13.9126L13.5341 13.9196L13.5509 13.9261L13.908 12.992ZM9.09202 13.272L9.58127 14.1441L9.58928 14.1397L9.5972 14.135L9.09202 13.272ZM7.32802 15.148L8.2183 15.6035L8.22245 15.5952L7.32802 15.148ZM7.04802 20.272L6.09934 20.5882L6.10325 20.6L6.10746 20.6116L7.04802 20.272ZM8.08402 22.008L7.34922 22.6863L7.35585 22.6935L7.36263 22.7005L8.08402 22.008ZM9.68002 23.1L9.28947 24.0206L9.30605 24.0276L9.32288 24.0341L9.68002 23.1ZM11.864 28.392V27.392C10.409 27.392 9.08818 27.1499 7.89089 26.6777L7.52402 27.608L7.15715 28.5383C8.61053 29.1114 10.1831 29.392 11.864 29.392V28.392ZM7.52402 27.608L7.89541 26.6795C6.70126 26.2019 5.66102 25.5407 4.76624 24.6966L4.08002 25.424L3.3938 26.1514C4.47769 27.1739 5.73344 27.9688 7.15263 28.5365L7.52402 27.608ZM4.08002 25.424L4.77313 24.7032C3.90178 23.8653 3.2218 22.8765 2.73186 21.7277L1.81202 22.12L0.892175 22.5123C1.4849 23.9021 2.31692 25.116 3.38691 26.1448L4.08002 25.424ZM1.81202 22.12L2.73186 21.7277C2.24698 20.5907 2.00002 19.3532 2.00002 18.004H1.00002H1.81198e-05C1.81198e-05 19.6041 0.294391 21.1106 0.892175 22.5123L1.81202 22.12ZM1.00002 18.004H2.00002C2.00002 16.6295 2.24003 15.3902 2.70669 14.2736L1.78402 13.888L0.861349 13.5024C0.282672 14.8871 1.81198e-05 16.3918 1.81198e-05 18.004H1.00002ZM1.78402 13.888L2.70174 14.2852C3.19105 13.1547 3.87122 12.1731 4.74513 11.3328L4.05202 10.612L3.35891 9.89116C2.29148 10.9175 1.45965 12.1199 0.866296 13.4908L1.78402 13.888ZM4.05202 10.612L4.74513 11.3328C5.61609 10.4954 6.64024 9.8471 7.82789 9.389L7.46802 8.456L7.10815 7.523C5.68246 8.0729 4.42928 8.86196 3.35891 9.89116L4.05202 10.612ZM7.46802 8.456L7.83489 9.38627C9.03218 8.9141 10.353 8.672 11.808 8.672V7.672V6.672C10.1271 6.672 8.55453 6.95256 7.10115 7.52573L7.46802 8.456ZM11.808 7.672V8.672C13.2633 8.672 14.5728 8.91416 15.7486 9.38448L16.12 8.456L16.4914 7.52752C15.0539 6.95251 13.4887 6.672 11.808 6.672V7.672ZM16.12 8.456L15.7646 9.3907C16.9709 9.84944 18.0024 10.4977 18.8709 11.3328L19.564 10.612L20.2571 9.89116C19.1843 8.85965 17.9198 8.07056 16.4755 7.5213L16.12 8.456ZM19.564 10.612L18.8709 11.3328C19.7397 12.1682 20.4084 13.153 20.8793 14.2967L21.804 13.916L22.7287 13.5352C22.1543 12.1403 21.3297 10.9225 20.2571 9.89116L19.564 10.612ZM21.804 13.916L20.8863 14.3132C21.3684 15.4269 21.616 16.6621 21.616 18.032H22.616H23.616C23.616 16.4152 23.3224 14.9064 22.7217 13.5188L21.804 13.916ZM22.616 18.032H21.616C21.616 19.3812 21.3691 20.6187 20.8842 21.7557L21.804 22.148L22.7239 22.5403C23.3216 21.1386 23.616 19.6321 23.616 18.032H22.616ZM21.804 22.148L20.8813 21.7624C20.4103 22.8895 19.7394 23.8793 18.8638 24.7381L19.564 25.452L20.2642 26.1659C21.3299 25.1207 22.1524 23.9078 22.7267 22.5336L21.804 22.148ZM19.564 25.452L18.8709 24.7312C17.9973 25.5712 16.9692 26.2305 15.7766 26.7075L16.148 27.636L16.5194 28.5645C17.9402 27.9962 19.1894 27.1995 20.2571 26.1728L19.564 25.452ZM16.148 27.636L15.7881 26.703C14.6079 27.1582 13.3034 27.392 11.864 27.392V28.392V29.392C13.5233 29.392 15.0748 29.1218 16.5079 28.569L16.148 27.636ZM11.808 23.464V24.464C12.9989 24.464 14.0852 24.2076 15.0292 23.655L14.524 22.792L14.0188 21.929C13.4322 22.2724 12.7078 22.464 11.808 22.464V23.464ZM14.524 22.792L15.0292 23.655C15.968 23.1055 16.6883 22.3235 17.1824 21.3352L16.288 20.888L15.3936 20.4408C15.0664 21.0952 14.6107 21.5825 14.0188 21.929L14.524 22.792ZM16.288 20.888L17.1824 21.3352C17.6751 20.35 17.904 19.2299 17.904 18.004H16.904H15.904C15.904 18.9807 15.7223 19.7833 15.3936 20.4408L16.288 20.888ZM16.904 18.004H17.904C17.904 17.0846 17.7682 16.2265 17.4774 15.4438L16.54 15.792L15.6026 16.1402C15.7972 16.6642 15.904 17.2808 15.904 18.004H16.904ZM16.54 15.792L17.4887 15.4758C17.2223 14.6766 16.8136 13.975 16.2534 13.3915L15.532 14.084L14.8106 14.7765C15.1464 15.1263 15.4097 15.5634 15.5913 16.1082L16.54 15.792ZM15.532 14.084L16.2668 13.4057C15.7113 12.8039 15.0395 12.354 14.2652 12.0579L13.908 12.992L13.5509 13.9261C14.0459 14.1153 14.4568 14.3935 14.7972 14.7623L15.532 14.084ZM13.908 12.992L14.2986 12.0714C13.5397 11.7495 12.7035 11.6 11.808 11.6V12.6V13.6C12.4806 13.6 13.0443 13.7119 13.5175 13.9126L13.908 12.992ZM11.808 12.6V11.6C10.6171 11.6 9.53085 11.8564 8.58684 12.409L9.09202 13.272L9.5972 14.135C10.1839 13.7916 10.9083 13.6 11.808 13.6V12.6ZM9.09202 13.272L8.60277 12.3999C7.65452 12.9318 6.92936 13.7092 6.43359 14.7008L7.32802 15.148L8.22245 15.5952C8.54801 14.9441 8.99885 14.4709 9.58127 14.1441L9.09202 13.272ZM7.32802 15.148L6.43777 14.6925C5.94071 15.664 5.71202 16.7789 5.71202 18.004H6.71202H7.71202C7.71202 17.0265 7.89399 16.2373 8.21827 15.6035L7.32802 15.148ZM6.71202 18.004H5.71202C5.71202 18.9321 5.8357 19.7973 6.09934 20.5882L7.04802 20.272L7.9967 19.9558C7.81233 19.4027 7.71202 18.7559 7.71202 18.004H6.71202ZM7.04802 20.272L6.10746 20.6116C6.3917 21.3988 6.80355 22.0951 7.34922 22.6863L8.08402 22.008L8.81882 21.3297C8.46848 20.9502 8.18967 20.4892 7.98857 19.9324L7.04802 20.272ZM8.08402 22.008L7.36263 22.7005C7.90758 23.2682 8.55328 23.7083 9.28947 24.0206L9.68002 23.1L10.0706 22.1794C9.57476 21.9691 9.15645 21.6811 8.80541 21.3155L8.08402 22.008ZM9.68002 23.1L9.32288 24.0341C10.0877 24.3265 10.9205 24.464 11.808 24.464V23.464V22.464C11.1276 22.464 10.5417 22.3589 10.0372 22.1659L9.68002 23.1Z" fill="#1D1D1D" mask="url(#path-1-outside-1_5_56)"/>
<path d="M20.9059 24.2951L9.65602 17.8L20.9064 11.3039L20.9059 24.2951Z" fill="#16FFC1" stroke="#1D1D1D"/>
</svg>
